<svg width="662" height="108" viewBox="0 0 662 108" fill="none" xmlns="http://www.w3.org/2000/svg">
<path d="M47.856 107.728C15.984 107.728 0.0480005 90.688 0.0480005 56.608C0.0480005 39.52 4.224 26.752 12.576 18.304C20.928 9.76 32.688 5.488 47.856 5.488C56.208 5.488 63.696 6.928 70.32 9.80799C77.04 12.592 82.32 16.912 86.16 22.768C90.096 28.528 92.064 35.584 92.064 43.936H70.608C70.608 37.504 68.544 32.464 64.416 28.816C60.288 25.072 54.912 23.2 48.288 23.2C39.264 23.2 32.544 25.888 28.128 31.264C23.712 36.64 21.504 44.368 21.504 54.448V58.768C21.504 79.6 30.432 90.016 48.288 90.016C55.296 90.016 60.864 88.192 64.992 84.544C69.216 80.896 71.328 75.856 71.328 69.424H92.064C92.064 77.872 90.144 84.976 86.304 90.736C82.464 96.4 77.232 100.672 70.608 103.552C63.984 106.336 56.4 107.728 47.856 107.728ZM105.266 1.88799H124.994V39.04H126.002C131.762 32.032 139.154 28.528 148.178 28.528C155.954 28.528 162.05 30.64 166.466 34.864C170.978 39.088 173.234 45.856 173.234 55.168V106H153.506V59.344C153.506 54.64 152.402 51.232 150.194 49.12C147.986 47.008 144.722 45.952 140.402 45.952C135.986 45.952 132.29 47.536 129.314 50.704C126.434 53.776 124.994 57.616 124.994 62.224V106H105.266V1.88799ZM207.841 107.728C201.985 107.728 196.609 106.192 191.713 103.12C186.817 100.048 184.369 94.48 184.369 86.416C184.369 76.72 188.353 69.856 196.321 65.824C204.289 61.696 215.569 59.632 230.161 59.632V54.304C230.161 50.944 229.393 48.352 227.857 46.528C226.417 44.704 223.633 43.792 219.505 43.792C215.089 43.792 211.921 44.464 210.001 45.808C208.177 47.152 207.265 48.736 207.265 50.56V52.72H188.257C188.161 52.144 188.113 51.088 188.113 49.552C188.113 43.216 190.897 38.128 196.465 34.288C202.129 30.448 209.617 28.528 218.929 28.528C229.297 28.528 237.025 30.64 242.113 34.864C247.297 39.088 249.889 45.184 249.889 53.152V86.56C249.889 88.288 250.369 89.584 251.329 90.448C252.289 91.216 253.489 91.6 254.929 91.6H258.961V105.424C255.889 106.96 252.097 107.728 247.585 107.728C243.649 107.728 240.337 106.864 237.649 105.136C235.057 103.408 233.281 100.96 232.321 97.792H231.457C228.673 101.056 225.457 103.552 221.809 105.28C218.257 106.912 213.601 107.728 207.841 107.728ZM214.033 92.176C219.601 92.176 223.681 90.64 226.273 87.568C228.865 84.4 230.161 80.224 230.161 75.04V72.736C212.977 72.736 204.385 76.576 204.385 84.256C204.385 86.656 205.153 88.576 206.689 90.016C208.321 91.456 210.769 92.176 214.033 92.176ZM267.553 1.88799H287.281V19.744H267.553V1.88799ZM267.553 30.256H287.281V106H267.553V30.256ZM304.751 30.256H321.599L323.039 40.192H324.047C330.191 32.416 338.063 28.528 347.663 28.528C355.439 28.528 361.535 30.64 365.951 34.864C370.463 39.088 372.719 45.856 372.719 55.168V106H352.991V59.344C352.991 54.64 351.887 51.232 349.679 49.12C347.471 47.008 344.207 45.952 339.887 45.952C335.471 45.952 331.775 47.536 328.799 50.704C325.919 53.776 324.479 57.616 324.479 62.224V106H304.751V30.256ZM391.774 46.384H380.974V30.256H391.774V21.616C391.774 15.664 393.358 10.72 396.526 6.784C399.694 2.752 404.926 0.735999 412.222 0.735999C414.238 0.735999 416.446 0.975999 418.846 1.456C421.246 1.936 423.262 2.464 424.894 3.04V16.864H417.694C413.566 16.864 411.502 18.928 411.502 23.056V30.256H424.894V46.384H411.502V106H391.774V46.384ZM437.854 1.88799H457.582V106H437.854V1.88799ZM508.749 107.728C495.789 107.728 486.141 104.512 479.805 98.08C473.469 91.648 470.301 81.664 470.301 68.128C470.301 54.592 473.469 44.608 479.805 38.176C486.141 31.744 495.789 28.528 508.749 28.528C521.709 28.528 531.357 31.744 537.693 38.176C544.125 44.608 547.341 54.592 547.341 68.128C547.341 81.664 544.125 91.648 537.693 98.08C531.357 104.512 521.709 107.728 508.749 107.728ZM508.749 91.6C515.181 91.6 519.837 89.776 522.717 86.128C525.597 82.384 527.037 76.768 527.037 69.28V66.976C527.037 59.488 525.597 53.92 522.717 50.272C519.837 46.528 515.181 44.656 508.749 44.656C502.317 44.656 497.661 46.528 494.781 50.272C491.997 53.92 490.605 59.488 490.605 66.976V69.28C490.605 76.768 491.997 82.384 494.781 86.128C497.661 89.776 502.317 91.6 508.749 91.6ZM550.557 30.256H570.861L579.069 61.36C579.645 63.568 580.461 67.312 581.517 72.592C582.573 77.872 583.245 81.376 583.533 83.104H584.109C584.397 81.472 584.973 78.496 585.837 74.176C586.797 69.76 587.757 65.536 588.717 61.504L596.493 30.256H616.797L625.005 61.648C625.773 64.528 626.685 68.416 627.741 73.312C628.797 78.208 629.469 81.472 629.757 83.104H630.333C630.621 81.664 631.245 78.592 632.205 73.888C633.165 69.088 634.077 65.008 634.941 61.648L642.717 30.256H661.437L638.973 106H618.525L609.885 69.856C609.117 66.88 608.397 63.616 607.725 60.064C607.053 56.512 606.621 54.208 606.429 53.152H605.709C605.613 54.208 605.277 56.464 604.701 59.92C604.125 63.376 603.453 66.64 602.685 69.712L593.613 106H573.165L550.557 30.256Z" fill="#231F20"/>
</svg>
